<svg id="visual" viewBox="0 0 540 960" width="540" height="960" xmlns="http://www.w3.org/2000/svg" xmlns:xlink="http://www.w3.org/1999/xlink" version="1.1"><rect x="0" y="0" width="540" height="960" fill="#3dc1ff"></rect><defs><linearGradient id="grad1_0" x1="0%" y1="0%" x2="100%" y2="100%"><stop offset="30%" stop-color="#ffd06a" stop-opacity="1"></stop><stop offset="70%" stop-color="#ffd06a" stop-opacity="1"></stop></linearGradient></defs><defs><linearGradient id="grad1_1" x1="0%" y1="0%" x2="100%" y2="100%"><stop offset="30%" stop-color="#ffd06a" stop-opacity="1"></stop><stop offset="70%" stop-color="#cad96f" stop-opacity="1"></stop></linearGradient></defs><defs><linearGradient id="grad1_2" x1="0%" y1="0%" x2="100%" y2="100%"><stop offset="30%" stop-color="#91dd8a" stop-opacity="1"></stop><stop offset="70%" stop-color="#cad96f" stop-opacity="1"></stop></linearGradient></defs><defs><linearGradient id="grad1_3" x1="0%" y1="0%" x2="100%" y2="100%"><stop offset="30%" stop-color="#91dd8a" stop-opacity="1"></stop><stop offset="70%" stop-color="#4fddaf" stop-opacity="1"></stop></linearGradient></defs><defs><linearGradient id="grad1_4" x1="0%" y1="0%" x2="100%" y2="100%"><stop offset="30%" stop-color="#00d7d5" stop-opacity="1"></stop><stop offset="70%" stop-color="#4fddaf" stop-opacity="1"></stop></linearGradient></defs><defs><linearGradient id="grad1_5" x1="0%" y1="0%" x2="100%" y2="100%"><stop offset="30%" stop-color="#00d7d5" stop-opacity="1"></stop><stop offset="70%" stop-color="#00cef2" stop-opacity="1"></stop></linearGradient></defs><defs><linearGradient id="grad1_6" x1="0%" y1="0%" x2="100%" y2="100%"><stop offset="30%" stop-color="#3dc1ff" stop-opacity="1"></stop><stop offset="70%" stop-color="#00cef2" stop-opacity="1"></stop></linearGradient></defs><defs><linearGradient id="grad2_0" x1="0%" y1="0%" x2="100%" y2="100%"><stop offset="30%" stop-color="#ffd06a" stop-opacity="1"></stop><stop offset="70%" stop-color="#ffd06a" stop-opacity="1"></stop></linearGradient></defs><defs><linearGradient id="grad2_1" x1="0%" y1="0%" x2="100%" y2="100%"><stop offset="30%" stop-color="#cad96f" stop-opacity="1"></stop><stop offset="70%" stop-color="#ffd06a" stop-opacity="1"></stop></linearGradient></defs><defs><linearGradient id="grad2_2" x1="0%" y1="0%" x2="100%" y2="100%"><stop offset="30%" stop-color="#cad96f" stop-opacity="1"></stop><stop offset="70%" stop-color="#91dd8a" stop-opacity="1"></stop></linearGradient></defs><defs><linearGradient id="grad2_3" x1="0%" y1="0%" x2="100%" y2="100%"><stop offset="30%" stop-color="#4fddaf" stop-opacity="1"></stop><stop offset="70%" stop-color="#91dd8a" stop-opacity="1"></stop></linearGradient></defs><defs><linearGradient id="grad2_4" x1="0%" y1="0%" x2="100%" y2="100%"><stop offset="30%" stop-color="#4fddaf" stop-opacity="1"></stop><stop offset="70%" stop-color="#00d7d5" stop-opacity="1"></stop></linearGradient></defs><defs><linearGradient id="grad2_5" x1="0%" y1="0%" x2="100%" y2="100%"><stop offset="30%" stop-color="#00cef2" stop-opacity="1"></stop><stop offset="70%" stop-color="#00d7d5" stop-opacity="1"></stop></linearGradient></defs><defs><linearGradient id="grad2_6" x1="0%" y1="0%" x2="100%" y2="100%"><stop offset="30%" stop-color="#00cef2" stop-opacity="1"></stop><stop offset="70%" stop-color="#3dc1ff" stop-opacity="1"></stop></linearGradient></defs><g transform="translate(540, 0)"><path d="M0 513C-43.9 475.8 -87.8 438.6 -136.6 420.4C-185.3 402.1 -238.9 402.9 -275.1 378.6C-311.2 354.4 -330 305.2 -367.3 266.9C-404.6 228.6 -460.5 201.2 -487.9 158.5C-515.3 115.9 -514.1 57.9 -513 0L0 0Z" fill="#00c8fb"></path><path d="M0 439.7C-37.6 407.8 -75.3 375.9 -117.1 360.3C-158.9 344.7 -204.8 345.3 -235.8 324.5C-266.8 303.7 -282.8 261.6 -314.8 228.7C-346.8 195.9 -394.7 172.4 -418.2 135.9C-441.7 99.3 -440.7 49.7 -439.7 0L0 0Z" fill="#00d3e5"></path><path d="M0 366.4C-31.4 339.9 -62.7 313.3 -97.6 300.3C-132.4 287.2 -170.7 287.8 -196.5 270.4C-222.3 253.1 -235.7 218 -262.4 190.6C-289 163.3 -328.9 143.7 -348.5 113.2C-368.1 82.8 -367.2 41.4 -366.4 0L0 0Z" fill="#19dac3"></path><path d="M0 293.1C-25.1 271.9 -50.2 250.6 -78 240.2C-105.9 229.8 -136.5 230.2 -157.2 216.4C-177.9 202.5 -188.6 174.4 -209.9 152.5C-231.2 130.6 -263.1 115 -278.8 90.6C-294.4 66.2 -293.8 33.1 -293.1 0L0 0Z" fill="#72de9c"></path><path d="M0 219.9C-18.8 203.9 -37.6 188 -58.5 180.2C-79.4 172.3 -102.4 172.7 -117.9 162.3C-133.4 151.9 -141.4 130.8 -157.4 114.4C-173.4 98 -197.4 86.2 -209.1 67.9C-220.8 49.7 -220.3 24.8 -219.9 0L0 0Z" fill="#aedc7b"></path><path d="M0 146.6C-12.5 135.9 -25.1 125.3 -39 120.1C-53 114.9 -68.3 115.1 -78.6 108.2C-88.9 101.2 -94.3 87.2 -104.9 76.2C-115.6 65.3 -131.6 57.5 -139.4 45.3C-147.2 33.1 -146.9 16.6 -146.6 0L0 0Z" fill="#e5d569"></path><path d="M0 73.3C-6.3 68 -12.5 62.7 -19.5 60.1C-26.5 57.4 -34.1 57.6 -39.3 54.1C-44.5 50.6 -47.1 43.6 -52.5 38.1C-57.8 32.7 -65.8 28.7 -69.7 22.6C-73.6 16.6 -73.4 8.3 -73.3 0L0 0Z" fill="#ffd06a"></path></g><g transform="translate(0, 960)"><path d="M0 -513C56.1 -511 112.2 -509.1 156.7 -482.2C201.2 -455.3 234.1 -403.4 263.3 -362.4C292.6 -321.5 318.2 -291.4 360 -261.6C401.8 -231.7 459.7 -202.1 487.9 -158.5C516.1 -115 514.5 -57.5 513 0L0 0Z" fill="#00c8fb"></path><path d="M0 -439.7C48.1 -438 96.2 -436.4 134.3 -413.3C172.4 -390.2 200.6 -345.8 225.7 -310.7C250.8 -275.5 272.8 -249.8 308.6 -224.2C344.4 -198.6 394 -173.2 418.2 -135.9C442.4 -98.5 441 -49.3 439.7 0L0 0Z" fill="#00d3e5"></path><path d="M0 -366.4C40.1 -365 80.1 -363.6 111.9 -344.4C143.7 -325.2 167.2 -288.1 188.1 -258.9C209 -229.6 227.3 -208.2 257.2 -186.8C287 -165.5 328.4 -144.3 348.5 -113.2C368.6 -82.1 367.5 -41.1 366.4 0L0 0Z" fill="#19dac3"></path><path d="M0 -293.1C32.1 -292 64.1 -290.9 89.5 -275.5C115 -260.2 133.7 -230.5 150.5 -207.1C167.2 -183.7 181.8 -166.5 205.7 -149.5C229.6 -132.4 262.7 -115.5 278.8 -90.6C294.9 -65.7 294 -32.8 293.1 0L0 0Z" fill="#72de9c"></path><path d="M0 -219.9C24 -219 48.1 -218.2 67.1 -206.7C86.2 -195.1 100.3 -172.9 112.9 -155.3C125.4 -137.8 136.4 -124.9 154.3 -112.1C172.2 -99.3 197 -86.6 209.1 -67.9C221.2 -49.3 220.5 -24.6 219.9 0L0 0Z" fill="#aedc7b"></path><path d="M0 -146.6C16 -146 32.1 -145.5 44.8 -137.8C57.5 -130.1 66.9 -115.3 75.2 -103.6C83.6 -91.8 90.9 -83.3 102.9 -74.7C114.8 -66.2 131.3 -57.7 139.4 -45.3C147.5 -32.8 147 -16.4 146.6 0L0 0Z" fill="#e5d569"></path><path d="M0 -73.3C8 -73 16 -72.7 22.4 -68.9C28.7 -65 33.4 -57.6 37.6 -51.8C41.8 -45.9 45.5 -41.6 51.4 -37.4C57.4 -33.1 65.7 -28.9 69.7 -22.6C73.7 -16.4 73.5 -8.2 73.3 0L0 0Z" fill="#ffd06a"></path></g></svg>